<?xml version="1.0" standalone="no"?>
<!DOCTYPE svg PUBLIC "-//W3C//DTD SVG 20010904//EN"
 "http://www.w3.org/TR/2001/REC-SVG-20010904/DTD/svg10.dtd">
<svg version="1.0" xmlns="http://www.w3.org/2000/svg"
 width="512.000000pt" height="512.000000pt" viewBox="0 0 512.000000 512.000000"
 preserveAspectRatio="xMidYMid meet">

<g transform="translate(0.000000,512.000000) scale(0.100000,-0.100000)"
fill="#000000" stroke="none">
<path d="M1470 4823 c-8 -4 -61 -43 -116 -87 -56 -45 -152 -112 -214 -151
-155 -95 -206 -167 -161 -223 11 -15 46 -74 76 -132 30 -58 68 -128 85 -157
l31 -52 -183 -92 c-184 -92 -340 -173 -455 -235 -62 -34 -62 -34 -103 -18 -61
25 -142 15 -179 -20 -55 -53 -64 -18 172 -671 228 -630 511 -1372 762 -1995
178 -443 195 -481 228 -503 54 -35 88 -25 276 86 224 132 428 247 438 247 4 0
23 -28 42 -63 135 -249 288 -418 411 -454 47 -14 64 -14 115 -4 83 18 201 79
341 178 65 46 229 157 364 247 519 346 1480 1058 1501 1113 13 35 3 63 -56
161 -255 427 -487 947 -820 1842 -118 318 -191 607 -211 844 -8 91 -27 121
-72 113 -15 -2 -137 -45 -272 -94 -342 -126 -438 -159 -444 -152 -3 3 -24 57
-46 120 -22 63 -47 120 -57 127 -9 6 -31 12 -47 12 -19 0 -214 -85 -511 -224
-264 -124 -485 -226 -492 -228 -6 -2 -74 94 -152 212 -159 242 -192 275 -251
253z m2214 -265 c16 -188 91 -490 194 -783 59 -166 245 -658 331 -873 124
-311 303 -682 440 -909 33 -56 61 -106 61 -110 0 -21 -393 -317 -690 -519
-494 -336 -1124 -723 -1262 -776 -104 -39 -174 -11 -271 108 -69 86 -157 214
-157 228 0 10 95 62 504 279 50 26 161 85 246 129 85 45 232 123 325 173 94
51 244 130 335 175 391 195 460 283 401 511 -52 200 -307 751 -601 1294 -246
456 -484 944 -468 961 3 3 66 23 139 44 74 21 204 63 289 93 85 30 160 55 166
56 7 1 14 -31 18 -81z m-821 -83 c109 -292 253 -597 512 -1085 295 -553 451
-883 536 -1128 44 -129 47 -154 20 -199 -24 -39 -64 -66 -266 -180 -256 -145
-359 -199 -945 -501 -563 -289 -849 -440 -1064 -564 -66 -37 -123 -68 -126
-68 -9 0 -22 30 -152 355 -268 669 -513 1310 -774 2025 l-145 394 28 27 c16
14 66 41 113 59 47 19 211 87 364 152 154 65 280 117 281 116 1 -2 22 -39 46
-82 60 -108 123 -171 177 -181 78 -13 160 15 351 120 211 116 242 190 162 384
-17 41 -29 76 -26 79 6 6 859 400 862 398 1 -1 22 -55 46 -121z m-1323 18 c24
-38 72 -113 105 -168 34 -55 87 -137 118 -183 82 -120 85 -151 22 -220 -57
-64 -215 -133 -265 -117 -39 12 -80 57 -131 143 -43 71 -193 297 -247 372 -11
16 -7 20 49 40 71 27 183 98 249 158 25 23 47 41 50 42 3 0 25 -30 50 -67z"/>
<path d="M2564 3460 c-312 -111 -685 -322 -1192 -677 -210 -146 -252 -180
-252 -202 0 -21 30 -51 52 -51 8 0 100 51 204 113 104 62 270 158 369 212 355
193 562 310 700 393 77 47 155 94 173 105 41 24 56 58 41 91 -15 33 -38 37
-95 16z"/>
<path d="M2971 3190 c-145 -53 -312 -142 -636 -343 -115 -71 -268 -166 -340
-210 -271 -167 -643 -418 -648 -437 -7 -26 20 -60 48 -60 13 0 146 71 297 158
452 262 611 352 875 495 372 201 525 301 531 347 7 59 -45 79 -127 50z"/>
<path d="M2988 2796 c-43 -13 -124 -46 -180 -74 -155 -79 -926 -592 -1215
-809 -148 -111 -183 -143 -183 -170 0 -21 38 -53 63 -53 12 0 160 84 327 186
535 328 629 384 784 466 224 120 361 203 451 273 104 82 138 118 138 149 0 62
-54 71 -185 32z"/>
<path d="M2342 2000 c-96 -53 -140 -83 -286 -200 -166 -132 -258 -199 -343
-249 -75 -45 -88 -65 -58 -95 17 -17 52 -8 136 34 61 31 429 271 514 336 89
67 175 147 175 162 0 16 -37 52 -52 52 -7 0 -46 -18 -86 -40z"/>
</g>
</svg>
